<?xml version="1.0" standalone="no"?><!DOCTYPE svg PUBLIC "-//W3C//DTD SVG 1.1//EN" "http://www.w3.org/Graphics/SVG/1.1/DTD/svg11.dtd"><svg class="icon" width="200px" height="200.00px" viewBox="0 0 1024 1024" version="1.1" xmlns="http://www.w3.org/2000/svg"><path fill="#ffffff" d="M512 861.090909c-193.163636 0-349.090909-155.927273-349.090909-349.090909S318.836364 162.909091 512 162.909091s349.090909 155.927273 349.090909 349.090909-155.927273 349.090909-349.090909 349.090909z m0-651.636364C344.436364 209.454545 209.454545 344.436364 209.454545 512s134.981818 302.545455 302.545455 302.545455 302.545455-134.981818 302.545455-302.545455S679.563636 209.454545 512 209.454545z"  /><path fill="#ffffff" d="M500.363636 512m-116.363636 0a116.363636 116.363636 0 1 0 232.727273 0 116.363636 116.363636 0 1 0-232.727273 0Z"  /><path fill="#ffffff" d="M849.454545 488.727273h116.363637v46.545454h-116.363637zM34.909091 488.727273h116.363636v46.545454h-116.363636zM477.090909 861.090909h46.545455v116.363636h-46.545455zM477.090909 46.545455h46.545455v116.363636h-46.545455z"  /></svg>